<?xml version="1.0" encoding="iso-8859-1"?>
<!-- Generator: Adobe Illustrator 16.0.0, SVG Export Plug-In . SVG Version: 6.00 Build 0)  -->
<!DOCTYPE svg PUBLIC "-//W3C//DTD SVG 1.1//EN" "http://www.w3.org/Graphics/SVG/1.1/DTD/svg11.dtd">
<svg version="1.1" id="Capa_1" xmlns="http://www.w3.org/2000/svg" xmlns:xlink="http://www.w3.org/1999/xlink" x="0px" y="0px"
	 width="140.171px" height="140.172px" viewBox="0 0 140.171 140.172" style="enable-background:new 0 0 140.171 140.172;"
	 xml:space="preserve">
<g>
	<g id="_x33_47._CD">
		<g>
			<path d="M70.085,0.002C31.377,0.002,0,31.38,0,70.084c0,38.708,31.377,70.085,70.085,70.085s70.086-31.378,70.086-70.085
				C140.171,31.38,108.793,0.002,70.085,0.002z M70.085,126.156c-30.967,0-56.068-25.104-56.068-56.072
				c0-30.964,25.102-56.065,56.068-56.065c30.968,0,56.069,25.102,56.069,56.065C126.155,101.052,101.053,126.156,70.085,126.156z
				 M70.085,49.062c-11.609,0-21.025,9.413-21.025,21.022c0,11.612,9.416,21.026,21.025,21.026c11.608,0,21.026-9.414,21.026-21.026
				C91.112,58.475,81.694,49.062,70.085,49.062z M70.085,77.093c-3.869,0-7.008-3.138-7.008-7.008c0-3.869,3.14-7.008,7.008-7.008
				c3.867,0,7.009,3.14,7.009,7.008C77.094,73.955,73.953,77.093,70.085,77.093z"/>
		</g>
	</g>
</g>
<g>
</g>
<g>
</g>
<g>
</g>
<g>
</g>
<g>
</g>
<g>
</g>
<g>
</g>
<g>
</g>
<g>
</g>
<g>
</g>
<g>
</g>
<g>
</g>
<g>
</g>
<g>
</g>
<g>
</g>
</svg>
