<?xml version="1.0" encoding="iso-8859-1"?>
<!-- Generator: Adobe Illustrator 16.0.0, SVG Export Plug-In . SVG Version: 6.00 Build 0)  -->
<!DOCTYPE svg PUBLIC "-//W3C//DTD SVG 1.1//EN" "http://www.w3.org/Graphics/SVG/1.1/DTD/svg11.dtd">
<svg version="1.1" id="Capa_1" xmlns="http://www.w3.org/2000/svg" xmlns:xlink="http://www.w3.org/1999/xlink" x="0px" y="0px"
	 width="379.123px" height="379.123px" viewBox="0 0 379.123 379.123" style="enable-background:new 0 0 379.123 379.123;"
	 xml:space="preserve">
<g>
	<g>
		<path d="M192.205,124.153h-32.844V91.31c0-2.909-2.358-5.269-5.269-5.269h-24.585c-2.909,0-5.268,2.359-5.268,5.269v32.844H91.396
			c-2.91,0-5.269,2.358-5.269,5.269v24.585c0,2.908,2.358,5.268,5.269,5.268h32.844v32.845c0,2.909,2.358,5.269,5.268,5.269h24.585
			c2.91,0,5.269-2.358,5.269-5.269v-32.845h32.844c2.909,0,5.27-2.359,5.27-5.268v-24.585
			C197.474,126.513,195.114,124.153,192.205,124.153z"/>
		<path d="M374.771,322.234L264.964,212.429c31.707-55.131,22.968-125.203-22.759-170.928c-55.333-55.334-145.368-55.334-200.704,0
			c-55.334,55.336-55.334,145.371,0,200.709c45.724,45.721,115.797,54.461,170.927,22.756l109.807,109.806
			c5.804,5.805,15.211,5.799,21.016,0l31.521-31.521C380.572,337.447,380.572,328.038,374.771,322.234z M205.17,205.175
			c-34.91,34.906-91.721,34.911-126.631,0c-34.913-34.915-34.913-91.725,0-126.636c34.91-34.915,91.721-34.915,126.631,0
			C240.08,113.452,240.08,170.26,205.17,205.175z"/>
	</g>
</g>
<g>
</g>
<g>
</g>
<g>
</g>
<g>
</g>
<g>
</g>
<g>
</g>
<g>
</g>
<g>
</g>
<g>
</g>
<g>
</g>
<g>
</g>
<g>
</g>
<g>
</g>
<g>
</g>
<g>
</g>
</svg>
